<?xml version="1.0" encoding="UTF-8" standalone="no"?>
<!DOCTYPE svg PUBLIC "-//W3C//DTD SVG 1.1//EN"
 "http://www.w3.org/Graphics/SVG/1.1/DTD/svg11.dtd">
<!-- Generated by graphviz version 5.0.0 (20220707.1540)
 -->
<!-- Pages: 1 -->
<svg width="3582pt" height="727pt"
 viewBox="0.00 0.00 3582.21 727.48" xmlns="http://www.w3.org/2000/svg" xmlns:xlink="http://www.w3.org/1999/xlink">
<g id="graph0" class="graph" transform="scale(1 1) rotate(0) translate(4 723.48)">
<polygon fill="white" stroke="transparent" points="-4,4 -4,-723.48 3578.21,-723.48 3578.21,4 -4,4"/>
<!-- Lexeme(id=19, desc=&#39;&#39;) -->
<g id="node1" class="node">
<title>Lexeme(id=19, desc=&#39;&#39;)</title>
<ellipse fill="none" stroke="black" cx="1556.83" cy="-701.48" rx="96.68" ry="18"/>
<text text-anchor="middle" x="1556.83" y="-697.78" font-family="Times New Roman,serif" font-size="14.00">Lexeme(id=19, desc=&#39;&#39;)</text>
</g>
<!-- Lexeme(id=0, desc=&#39;&#39;) -->
<g id="node2" class="node">
<title>Lexeme(id=0, desc=&#39;&#39;)</title>
<ellipse fill="none" stroke="black" cx="1556.83" cy="-629.48" rx="92.88" ry="18"/>
<text text-anchor="middle" x="1556.83" y="-625.78" font-family="Times New Roman,serif" font-size="14.00">Lexeme(id=0, desc=&#39;&#39;)</text>
</g>
<!-- Lexeme(id=19, desc=&#39;&#39;)&#45;&gt;Lexeme(id=0, desc=&#39;&#39;) -->
<g id="edge1" class="edge">
<title>Lexeme(id=19, desc=&#39;&#39;)&#45;&gt;Lexeme(id=0, desc=&#39;&#39;)</title>
<path fill="none" stroke="black" d="M1556.83,-683.18C1556.83,-675.46 1556.83,-666.19 1556.83,-657.59"/>
<polygon fill="black" stroke="black" points="1560.33,-657.58 1556.83,-647.58 1553.33,-657.58 1560.33,-657.58"/>
</g>
<!-- Lexeme(id=16, desc=&#39;code&#39;) (1) -->
<g id="node3" class="node">
<title>Lexeme(id=16, desc=&#39;code&#39;) (1)</title>
<ellipse fill="none" stroke="black" cx="1556.83" cy="-557.48" rx="128.08" ry="18"/>
<text text-anchor="middle" x="1556.83" y="-553.78" font-family="Times New Roman,serif" font-size="14.00">Lexeme(id=16, desc=&#39;code&#39;) (1)</text>
</g>
<!-- Lexeme(id=0, desc=&#39;&#39;)&#45;&gt;Lexeme(id=16, desc=&#39;code&#39;) (1) -->
<g id="edge2" class="edge">
<title>Lexeme(id=0, desc=&#39;&#39;)&#45;&gt;Lexeme(id=16, desc=&#39;code&#39;) (1)</title>
<path fill="none" stroke="black" d="M1556.83,-611.18C1556.83,-603.46 1556.83,-594.19 1556.83,-585.59"/>
<polygon fill="black" stroke="black" points="1560.33,-585.58 1556.83,-575.58 1553.33,-585.58 1560.33,-585.58"/>
</g>
<!-- Lexeme(id=15, desc=&#39;line&#39;) (1) -->
<g id="node4" class="node">
<title>Lexeme(id=15, desc=&#39;line&#39;) (1)</title>
<ellipse fill="none" stroke="black" cx="984.83" cy="-476.61" rx="122.38" ry="18"/>
<text text-anchor="middle" x="984.83" y="-472.91" font-family="Times New Roman,serif" font-size="14.00">Lexeme(id=15, desc=&#39;line&#39;) (1)</text>
</g>
<!-- Lexeme(id=16, desc=&#39;code&#39;) (1)&#45;&gt;Lexeme(id=15, desc=&#39;line&#39;) (1) -->
<g id="edge3" class="edge">
<title>Lexeme(id=16, desc=&#39;code&#39;) (1)&#45;&gt;Lexeme(id=15, desc=&#39;line&#39;) (1)</title>
<path fill="none" stroke="black" d="M1469.02,-544.37C1364.1,-529.91 1189.16,-505.78 1080.76,-490.84"/>
<polygon fill="black" stroke="black" points="1081.2,-487.36 1070.81,-489.47 1080.24,-494.3 1081.2,-487.36"/>
</g>
<!-- ExactLexeme(content=&#39;\n&#39;, id=&#39;14&#39;) -->
<g id="node5" class="node">
<title>ExactLexeme(content=&#39;\n&#39;, id=&#39;14&#39;)</title>
<ellipse fill="none" stroke="black" cx="1556.83" cy="-476.61" rx="105.22" ry="26.74"/>
<text text-anchor="middle" x="1556.83" y="-480.41" font-family="Times New Roman,serif" font-size="14.00">ExactLexeme(content=&#39;</text>
<text text-anchor="middle" x="1556.83" y="-465.41" font-family="Times New Roman,serif" font-size="14.00">&#39;, id=&#39;14&#39;)</text>
</g>
<!-- Lexeme(id=16, desc=&#39;code&#39;) (1)&#45;&gt;ExactLexeme(content=&#39;\n&#39;, id=&#39;14&#39;) -->
<g id="edge4" class="edge">
<title>Lexeme(id=16, desc=&#39;code&#39;) (1)&#45;&gt;ExactLexeme(content=&#39;\n&#39;, id=&#39;14&#39;)</title>
<path fill="none" stroke="black" d="M1556.83,-539.37C1556.83,-531.88 1556.83,-522.79 1556.83,-513.91"/>
<polygon fill="black" stroke="black" points="1560.33,-513.69 1556.83,-503.69 1553.33,-513.69 1560.33,-513.69"/>
</g>
<!-- Lexeme(id=16, desc=&#39;code&#39;) (2) -->
<g id="node6" class="node">
<title>Lexeme(id=16, desc=&#39;code&#39;) (2)</title>
<ellipse fill="none" stroke="black" cx="2151.83" cy="-476.61" rx="128.08" ry="18"/>
<text text-anchor="middle" x="2151.83" y="-472.91" font-family="Times New Roman,serif" font-size="14.00">Lexeme(id=16, desc=&#39;code&#39;) (2)</text>
</g>
<!-- Lexeme(id=16, desc=&#39;code&#39;) (1)&#45;&gt;Lexeme(id=16, desc=&#39;code&#39;) (2) -->
<g id="edge5" class="edge">
<title>Lexeme(id=16, desc=&#39;code&#39;) (1)&#45;&gt;Lexeme(id=16, desc=&#39;code&#39;) (2)</title>
<path fill="none" stroke="black" d="M1646.55,-544.59C1755.43,-530.15 1938.47,-505.89 2051.8,-490.87"/>
<polygon fill="black" stroke="black" points="2052.41,-494.32 2061.86,-489.54 2051.49,-487.38 2052.41,-494.32"/>
</g>
<!-- Lexeme(id=1, desc=&#39;exp&#39;) (1) -->
<g id="node7" class="node">
<title>Lexeme(id=1, desc=&#39;exp&#39;) (1)</title>
<ellipse fill="none" stroke="black" cx="453.83" cy="-386.87" rx="118.08" ry="18"/>
<text text-anchor="middle" x="453.83" y="-383.17" font-family="Times New Roman,serif" font-size="14.00">Lexeme(id=1, desc=&#39;exp&#39;) (1)</text>
</g>
<!-- Lexeme(id=15, desc=&#39;line&#39;) (1)&#45;&gt;Lexeme(id=1, desc=&#39;exp&#39;) (1) -->
<g id="edge6" class="edge">
<title>Lexeme(id=15, desc=&#39;line&#39;) (1)&#45;&gt;Lexeme(id=1, desc=&#39;exp&#39;) (1)</title>
<path fill="none" stroke="black" d="M906.76,-462.71C809.12,-446.58 642.43,-419.03 540.8,-402.24"/>
<polygon fill="black" stroke="black" points="541.3,-398.78 530.86,-400.6 540.16,-405.68 541.3,-398.78"/>
</g>
<!-- ExactLexeme(content=&#39;=&#39;, id=&#39;9&#39;) -->
<g id="node8" class="node">
<title>ExactLexeme(content=&#39;=&#39;, id=&#39;9&#39;)</title>
<ellipse fill="none" stroke="black" cx="826.83" cy="-386.87" rx="131.88" ry="18"/>
<text text-anchor="middle" x="826.83" y="-383.17" font-family="Times New Roman,serif" font-size="14.00">ExactLexeme(content=&#39;=&#39;, id=&#39;9&#39;)</text>
</g>
<!-- Lexeme(id=15, desc=&#39;line&#39;) (1)&#45;&gt;ExactLexeme(content=&#39;=&#39;, id=&#39;9&#39;) -->
<g id="edge7" class="edge">
<title>Lexeme(id=15, desc=&#39;line&#39;) (1)&#45;&gt;ExactLexeme(content=&#39;=&#39;, id=&#39;9&#39;)</title>
<path fill="none" stroke="black" d="M955.11,-459.11C929.81,-445.06 893.29,-424.78 865.68,-409.44"/>
<polygon fill="black" stroke="black" points="867.12,-406.24 856.68,-404.45 863.73,-412.36 867.12,-406.24"/>
</g>
<!-- Lexeme(id=1, desc=&#39;exp&#39;) (2) -->
<g id="node9" class="node">
<title>Lexeme(id=1, desc=&#39;exp&#39;) (2)</title>
<ellipse fill="none" stroke="black" cx="1118.83" cy="-386.87" rx="118.08" ry="18"/>
<text text-anchor="middle" x="1118.83" y="-383.17" font-family="Times New Roman,serif" font-size="14.00">Lexeme(id=1, desc=&#39;exp&#39;) (2)</text>
</g>
<!-- Lexeme(id=15, desc=&#39;line&#39;) (1)&#45;&gt;Lexeme(id=1, desc=&#39;exp&#39;) (2) -->
<g id="edge8" class="edge">
<title>Lexeme(id=15, desc=&#39;line&#39;) (1)&#45;&gt;Lexeme(id=1, desc=&#39;exp&#39;) (2)</title>
<path fill="none" stroke="black" d="M1010.35,-458.9C1031.49,-445.06 1061.72,-425.26 1084.9,-410.09"/>
<polygon fill="black" stroke="black" points="1086.96,-412.92 1093.4,-404.52 1083.12,-407.07 1086.96,-412.92"/>
</g>
<!-- Token(content=&#39;\n&#39;, position=(1:16), tags=[]) (9) -->
<g id="node34" class="node">
<title>Token(content=&#39;\n&#39;, position=(1:16), tags=[]) (9)</title>
<ellipse fill="none" stroke="black" cx="1556.83" cy="-386.87" rx="130.22" ry="26.74"/>
<text text-anchor="middle" x="1556.83" y="-390.67" font-family="Times New Roman,serif" font-size="14.00">Token(content=&#39;</text>
<text text-anchor="middle" x="1556.83" y="-375.67" font-family="Times New Roman,serif" font-size="14.00">&#39;, position=(1:16), tags=[]) (9)</text>
</g>
<!-- ExactLexeme(content=&#39;\n&#39;, id=&#39;14&#39;)&#45;&gt;Token(content=&#39;\n&#39;, position=(1:16), tags=[]) (9) -->
<g id="edge33" class="edge">
<title>ExactLexeme(content=&#39;\n&#39;, id=&#39;14&#39;)&#45;&gt;Token(content=&#39;\n&#39;, position=(1:16), tags=[]) (9)</title>
<path fill="none" stroke="black" d="M1556.83,-449.29C1556.83,-441.32 1556.83,-432.43 1556.83,-423.94"/>
<polygon fill="black" stroke="black" points="1560.33,-423.87 1556.83,-413.87 1553.33,-423.87 1560.33,-423.87"/>
</g>
<!-- Lexeme(id=15, desc=&#39;line&#39;) (2) -->
<g id="node35" class="node">
<title>Lexeme(id=15, desc=&#39;line&#39;) (2)</title>
<ellipse fill="none" stroke="black" cx="2674.83" cy="-386.87" rx="122.38" ry="18"/>
<text text-anchor="middle" x="2674.83" y="-383.17" font-family="Times New Roman,serif" font-size="14.00">Lexeme(id=15, desc=&#39;line&#39;) (2)</text>
</g>
<!-- Lexeme(id=16, desc=&#39;code&#39;) (2)&#45;&gt;Lexeme(id=15, desc=&#39;line&#39;) (2) -->
<g id="edge34" class="edge">
<title>Lexeme(id=16, desc=&#39;code&#39;) (2)&#45;&gt;Lexeme(id=15, desc=&#39;line&#39;) (2)</title>
<path fill="none" stroke="black" d="M2230.69,-462.38C2326.56,-446.3 2487.85,-419.24 2587.42,-402.53"/>
<polygon fill="black" stroke="black" points="2588.17,-405.96 2597.46,-400.85 2587.02,-399.05 2588.17,-405.96"/>
</g>
<!-- RegexLexeme(regex=&#39;_*[A&#45;Za&#45;z][A&#45;Za&#45;z_0&#45;9]*&#39;, id=&#39;10&#39;) (1) -->
<g id="node10" class="node">
<title>RegexLexeme(regex=&#39;_*[A&#45;Za&#45;z][A&#45;Za&#45;z_0&#45;9]*&#39;, id=&#39;10&#39;) (1)</title>
<ellipse fill="none" stroke="black" cx="239.83" cy="-306" rx="231.26" ry="18"/>
<text text-anchor="middle" x="239.83" y="-302.3" font-family="Times New Roman,serif" font-size="14.00">RegexLexeme(regex=&#39;_*[A&#45;Za&#45;z][A&#45;Za&#45;z_0&#45;9]*&#39;, id=&#39;10&#39;) (1)</text>
</g>
<!-- Lexeme(id=1, desc=&#39;exp&#39;) (1)&#45;&gt;RegexLexeme(regex=&#39;_*[A&#45;Za&#45;z][A&#45;Za&#45;z_0&#45;9]*&#39;, id=&#39;10&#39;) (1) -->
<g id="edge9" class="edge">
<title>Lexeme(id=1, desc=&#39;exp&#39;) (1)&#45;&gt;RegexLexeme(regex=&#39;_*[A&#45;Za&#45;z][A&#45;Za&#45;z_0&#45;9]*&#39;, id=&#39;10&#39;) (1)</title>
<path fill="none" stroke="black" d="M410.78,-370C377.28,-357.66 330.57,-340.44 294.44,-327.13"/>
<polygon fill="black" stroke="black" points="295.62,-323.83 285.02,-323.66 293.2,-330.4 295.62,-323.83"/>
</g>
<!-- Token(content=&#39;=&#39;, position=(1:7), tags=[]) (1) -->
<g id="node12" class="node">
<title>Token(content=&#39;=&#39;, position=(1:7), tags=[]) (1)</title>
<ellipse fill="none" stroke="black" cx="669.83" cy="-306" rx="180.87" ry="18"/>
<text text-anchor="middle" x="669.83" y="-302.3" font-family="Times New Roman,serif" font-size="14.00">Token(content=&#39;=&#39;, position=(1:7), tags=[]) (1)</text>
</g>
<!-- ExactLexeme(content=&#39;=&#39;, id=&#39;9&#39;)&#45;&gt;Token(content=&#39;=&#39;, position=(1:7), tags=[]) (1) -->
<g id="edge11" class="edge">
<title>ExactLexeme(content=&#39;=&#39;, id=&#39;9&#39;)&#45;&gt;Token(content=&#39;=&#39;, position=(1:7), tags=[]) (1)</title>
<path fill="none" stroke="black" d="M793.92,-369.34C770.21,-357.43 738.02,-341.26 712.37,-328.37"/>
<polygon fill="black" stroke="black" points="713.75,-325.15 703.24,-323.78 710.6,-331.4 713.75,-325.15"/>
</g>
<!-- Lexeme(id=1, desc=&#39;exp&#39;) (3) -->
<g id="node13" class="node">
<title>Lexeme(id=1, desc=&#39;exp&#39;) (3)</title>
<ellipse fill="none" stroke="black" cx="986.83" cy="-306" rx="118.08" ry="18"/>
<text text-anchor="middle" x="986.83" y="-302.3" font-family="Times New Roman,serif" font-size="14.00">Lexeme(id=1, desc=&#39;exp&#39;) (3)</text>
</g>
<!-- Lexeme(id=1, desc=&#39;exp&#39;) (2)&#45;&gt;Lexeme(id=1, desc=&#39;exp&#39;) (3) -->
<g id="edge12" class="edge">
<title>Lexeme(id=1, desc=&#39;exp&#39;) (2)&#45;&gt;Lexeme(id=1, desc=&#39;exp&#39;) (3)</title>
<path fill="none" stroke="black" d="M1091.16,-369.34C1071.44,-357.56 1044.75,-341.61 1023.3,-328.79"/>
<polygon fill="black" stroke="black" points="1024.84,-325.64 1014.46,-323.51 1021.25,-331.65 1024.84,-325.64"/>
</g>
<!-- Lexeme(id=3, desc=&#39;action&#39;) (1) -->
<g id="node14" class="node">
<title>Lexeme(id=3, desc=&#39;action&#39;) (1)</title>
<ellipse fill="none" stroke="black" cx="1250.83" cy="-306" rx="127.28" ry="18"/>
<text text-anchor="middle" x="1250.83" y="-302.3" font-family="Times New Roman,serif" font-size="14.00">Lexeme(id=3, desc=&#39;action&#39;) (1)</text>
</g>
<!-- Lexeme(id=1, desc=&#39;exp&#39;) (2)&#45;&gt;Lexeme(id=3, desc=&#39;action&#39;) (1) -->
<g id="edge13" class="edge">
<title>Lexeme(id=1, desc=&#39;exp&#39;) (2)&#45;&gt;Lexeme(id=3, desc=&#39;action&#39;) (1)</title>
<path fill="none" stroke="black" d="M1146.5,-369.34C1166.08,-357.64 1192.55,-341.82 1213.92,-329.05"/>
<polygon fill="black" stroke="black" points="1215.95,-331.92 1222.74,-323.78 1212.36,-325.91 1215.95,-331.92"/>
</g>
<!-- Lexeme(id=1, desc=&#39;exp&#39;) (4) -->
<g id="node15" class="node">
<title>Lexeme(id=1, desc=&#39;exp&#39;) (4)</title>
<ellipse fill="none" stroke="black" cx="1641.83" cy="-306" rx="118.08" ry="18"/>
<text text-anchor="middle" x="1641.83" y="-302.3" font-family="Times New Roman,serif" font-size="14.00">Lexeme(id=1, desc=&#39;exp&#39;) (4)</text>
</g>
<!-- Lexeme(id=1, desc=&#39;exp&#39;) (2)&#45;&gt;Lexeme(id=1, desc=&#39;exp&#39;) (4) -->
<g id="edge14" class="edge">
<title>Lexeme(id=1, desc=&#39;exp&#39;) (2)&#45;&gt;Lexeme(id=1, desc=&#39;exp&#39;) (4)</title>
<path fill="none" stroke="black" d="M1199.69,-373.68C1294.63,-359.36 1451.7,-335.67 1550.83,-320.72"/>
<polygon fill="black" stroke="black" points="1551.46,-324.17 1560.83,-319.22 1550.42,-317.25 1551.46,-324.17"/>
</g>
<!-- Token(content=&#39;return&#39;, position=(1:1), tags=[word, regex]) (0) -->
<g id="node11" class="node">
<title>Token(content=&#39;return&#39;, position=(1:1), tags=[word, regex]) (0)</title>
<ellipse fill="none" stroke="black" cx="239.83" cy="-234" rx="239.66" ry="18"/>
<text text-anchor="middle" x="239.83" y="-230.3" font-family="Times New Roman,serif" font-size="14.00">Token(content=&#39;return&#39;, position=(1:1), tags=[word, regex]) (0)</text>
</g>
<!-- RegexLexeme(regex=&#39;_*[A&#45;Za&#45;z][A&#45;Za&#45;z_0&#45;9]*&#39;, id=&#39;10&#39;) (1)&#45;&gt;Token(content=&#39;return&#39;, position=(1:1), tags=[word, regex]) (0) -->
<g id="edge10" class="edge">
<title>RegexLexeme(regex=&#39;_*[A&#45;Za&#45;z][A&#45;Za&#45;z_0&#45;9]*&#39;, id=&#39;10&#39;) (1)&#45;&gt;Token(content=&#39;return&#39;, position=(1:1), tags=[word, regex]) (0)</title>
<path fill="none" stroke="black" d="M239.83,-287.7C239.83,-279.98 239.83,-270.71 239.83,-262.11"/>
<polygon fill="black" stroke="black" points="243.33,-262.1 239.83,-252.1 236.33,-262.1 243.33,-262.1"/>
</g>
<!-- RegexLexeme(regex=&#39;\d+&#39;, id=&#39;2&#39;) (1) -->
<g id="node16" class="node">
<title>RegexLexeme(regex=&#39;\d+&#39;, id=&#39;2&#39;) (1)</title>
<ellipse fill="none" stroke="black" cx="799.83" cy="-234" rx="144.87" ry="18"/>
<text text-anchor="middle" x="799.83" y="-230.3" font-family="Times New Roman,serif" font-size="14.00">RegexLexeme(regex=&#39;d+&#39;, id=&#39;2&#39;) (1)</text>
</g>
<!-- Lexeme(id=1, desc=&#39;exp&#39;) (3)&#45;&gt;RegexLexeme(regex=&#39;\d+&#39;, id=&#39;2&#39;) (1) -->
<g id="edge15" class="edge">
<title>Lexeme(id=1, desc=&#39;exp&#39;) (3)&#45;&gt;RegexLexeme(regex=&#39;\d+&#39;, id=&#39;2&#39;) (1)</title>
<path fill="none" stroke="black" d="M944.4,-289.12C917.19,-278.93 881.67,-265.63 852.64,-254.77"/>
<polygon fill="black" stroke="black" points="853.66,-251.41 843.07,-251.19 851.2,-257.97 853.66,-251.41"/>
</g>
<!-- ExactLexeme(content=&#39;*&#39;, id=&#39;6&#39;) -->
<g id="node18" class="node">
<title>ExactLexeme(content=&#39;*&#39;, id=&#39;6&#39;)</title>
<ellipse fill="none" stroke="black" cx="1171.83" cy="-234" rx="131.08" ry="18"/>
<text text-anchor="middle" x="1171.83" y="-230.3" font-family="Times New Roman,serif" font-size="14.00">ExactLexeme(content=&#39;*&#39;, id=&#39;6&#39;)</text>
</g>
<!-- Lexeme(id=3, desc=&#39;action&#39;) (1)&#45;&gt;ExactLexeme(content=&#39;*&#39;, id=&#39;6&#39;) -->
<g id="edge17" class="edge">
<title>Lexeme(id=3, desc=&#39;action&#39;) (1)&#45;&gt;ExactLexeme(content=&#39;*&#39;, id=&#39;6&#39;)</title>
<path fill="none" stroke="black" d="M1231.71,-288.05C1221.78,-279.26 1209.5,-268.38 1198.65,-258.76"/>
<polygon fill="black" stroke="black" points="1200.86,-256.04 1191.05,-252.03 1196.21,-261.28 1200.86,-256.04"/>
</g>
<!-- ExactLexeme(content=&#39;(&#39;, id=&#39;7&#39;) -->
<g id="node20" class="node">
<title>ExactLexeme(content=&#39;(&#39;, id=&#39;7&#39;)</title>
<ellipse fill="none" stroke="black" cx="1501.83" cy="-234" rx="129.98" ry="18"/>
<text text-anchor="middle" x="1501.83" y="-230.3" font-family="Times New Roman,serif" font-size="14.00">ExactLexeme(content=&#39;(&#39;, id=&#39;7&#39;)</text>
</g>
<!-- Lexeme(id=1, desc=&#39;exp&#39;) (4)&#45;&gt;ExactLexeme(content=&#39;(&#39;, id=&#39;7&#39;) -->
<g id="edge19" class="edge">
<title>Lexeme(id=1, desc=&#39;exp&#39;) (4)&#45;&gt;ExactLexeme(content=&#39;(&#39;, id=&#39;7&#39;)</title>
<path fill="none" stroke="black" d="M1609,-288.59C1589.57,-278.87 1564.76,-266.47 1543.9,-256.04"/>
<polygon fill="black" stroke="black" points="1545.44,-252.89 1534.93,-251.55 1542.31,-259.15 1545.44,-252.89"/>
</g>
<!-- Lexeme(id=1, desc=&#39;exp&#39;) (5) -->
<g id="node21" class="node">
<title>Lexeme(id=1, desc=&#39;exp&#39;) (5)</title>
<ellipse fill="none" stroke="black" cx="1794.83" cy="-234" rx="118.08" ry="18"/>
<text text-anchor="middle" x="1794.83" y="-230.3" font-family="Times New Roman,serif" font-size="14.00">Lexeme(id=1, desc=&#39;exp&#39;) (5)</text>
</g>
<!-- Lexeme(id=1, desc=&#39;exp&#39;) (4)&#45;&gt;Lexeme(id=1, desc=&#39;exp&#39;) (5) -->
<g id="edge20" class="edge">
<title>Lexeme(id=1, desc=&#39;exp&#39;) (4)&#45;&gt;Lexeme(id=1, desc=&#39;exp&#39;) (5)</title>
<path fill="none" stroke="black" d="M1677.31,-288.76C1698.96,-278.86 1726.83,-266.11 1749.99,-255.51"/>
<polygon fill="black" stroke="black" points="1751.63,-258.61 1759.27,-251.27 1748.72,-252.25 1751.63,-258.61"/>
</g>
<!-- ExactLexeme(content=&#39;)&#39;, id=&#39;8&#39;) -->
<g id="node22" class="node">
<title>ExactLexeme(content=&#39;)&#39;, id=&#39;8&#39;)</title>
<ellipse fill="none" stroke="black" cx="2060.83" cy="-234" rx="129.98" ry="18"/>
<text text-anchor="middle" x="2060.83" y="-230.3" font-family="Times New Roman,serif" font-size="14.00">ExactLexeme(content=&#39;)&#39;, id=&#39;8&#39;)</text>
</g>
<!-- Lexeme(id=1, desc=&#39;exp&#39;) (4)&#45;&gt;ExactLexeme(content=&#39;)&#39;, id=&#39;8&#39;) -->
<g id="edge21" class="edge">
<title>Lexeme(id=1, desc=&#39;exp&#39;) (4)&#45;&gt;ExactLexeme(content=&#39;)&#39;, id=&#39;8&#39;)</title>
<path fill="none" stroke="black" d="M1718.19,-292.24C1789.58,-280.32 1896.17,-262.51 1971.48,-249.93"/>
<polygon fill="black" stroke="black" points="1972.14,-253.36 1981.43,-248.26 1970.99,-246.46 1972.14,-253.36"/>
</g>
<!-- Token(content=&#39;2&#39;, position=(1:8), tags=[number, regex]) (2) -->
<g id="node17" class="node">
<title>Token(content=&#39;2&#39;, position=(1:8), tags=[number, regex]) (2)</title>
<ellipse fill="none" stroke="black" cx="665.83" cy="-162" rx="231.26" ry="18"/>
<text text-anchor="middle" x="665.83" y="-158.3" font-family="Times New Roman,serif" font-size="14.00">Token(content=&#39;2&#39;, position=(1:8), tags=[number, regex]) (2)</text>
</g>
<!-- RegexLexeme(regex=&#39;\d+&#39;, id=&#39;2&#39;) (1)&#45;&gt;Token(content=&#39;2&#39;, position=(1:8), tags=[number, regex]) (2) -->
<g id="edge16" class="edge">
<title>RegexLexeme(regex=&#39;\d+&#39;, id=&#39;2&#39;) (1)&#45;&gt;Token(content=&#39;2&#39;, position=(1:8), tags=[number, regex]) (2)</title>
<path fill="none" stroke="black" d="M768.07,-216.41C749.9,-206.92 726.89,-194.9 707.3,-184.67"/>
<polygon fill="black" stroke="black" points="708.77,-181.48 698.29,-179.96 705.53,-187.69 708.77,-181.48"/>
</g>
<!-- Token(content=&#39;*&#39;, position=(1:9), tags=[]) (3) -->
<g id="node19" class="node">
<title>Token(content=&#39;*&#39;, position=(1:9), tags=[]) (3)</title>
<ellipse fill="none" stroke="black" cx="1094.83" cy="-162" rx="180.07" ry="18"/>
<text text-anchor="middle" x="1094.83" y="-158.3" font-family="Times New Roman,serif" font-size="14.00">Token(content=&#39;*&#39;, position=(1:9), tags=[]) (3)</text>
</g>
<!-- ExactLexeme(content=&#39;*&#39;, id=&#39;6&#39;)&#45;&gt;Token(content=&#39;*&#39;, position=(1:9), tags=[]) (3) -->
<g id="edge18" class="edge">
<title>ExactLexeme(content=&#39;*&#39;, id=&#39;6&#39;)&#45;&gt;Token(content=&#39;*&#39;, position=(1:9), tags=[]) (3)</title>
<path fill="none" stroke="black" d="M1153.19,-216.05C1143.52,-207.26 1131.55,-196.38 1120.97,-186.76"/>
<polygon fill="black" stroke="black" points="1123.32,-184.17 1113.56,-180.03 1118.61,-189.35 1123.32,-184.17"/>
</g>
<!-- Token(content=&#39;(&#39;, position=(1:10), tags=[]) (4) -->
<g id="node23" class="node">
<title>Token(content=&#39;(&#39;, position=(1:10), tags=[]) (4)</title>
<ellipse fill="none" stroke="black" cx="1475.83" cy="-162" rx="182.77" ry="18"/>
<text text-anchor="middle" x="1475.83" y="-158.3" font-family="Times New Roman,serif" font-size="14.00">Token(content=&#39;(&#39;, position=(1:10), tags=[]) (4)</text>
</g>
<!-- ExactLexeme(content=&#39;(&#39;, id=&#39;7&#39;)&#45;&gt;Token(content=&#39;(&#39;, position=(1:10), tags=[]) (4) -->
<g id="edge22" class="edge">
<title>ExactLexeme(content=&#39;(&#39;, id=&#39;7&#39;)&#45;&gt;Token(content=&#39;(&#39;, position=(1:10), tags=[]) (4)</title>
<path fill="none" stroke="black" d="M1495.4,-215.7C1492.47,-207.81 1488.94,-198.3 1485.69,-189.55"/>
<polygon fill="black" stroke="black" points="1488.94,-188.26 1482.18,-180.1 1482.38,-190.7 1488.94,-188.26"/>
</g>
<!-- Lexeme(id=1, desc=&#39;exp&#39;) (6) -->
<g id="node24" class="node">
<title>Lexeme(id=1, desc=&#39;exp&#39;) (6)</title>
<ellipse fill="none" stroke="black" cx="1794.83" cy="-162" rx="118.08" ry="18"/>
<text text-anchor="middle" x="1794.83" y="-158.3" font-family="Times New Roman,serif" font-size="14.00">Lexeme(id=1, desc=&#39;exp&#39;) (6)</text>
</g>
<!-- Lexeme(id=1, desc=&#39;exp&#39;) (5)&#45;&gt;Lexeme(id=1, desc=&#39;exp&#39;) (6) -->
<g id="edge23" class="edge">
<title>Lexeme(id=1, desc=&#39;exp&#39;) (5)&#45;&gt;Lexeme(id=1, desc=&#39;exp&#39;) (6)</title>
<path fill="none" stroke="black" d="M1794.83,-215.7C1794.83,-207.98 1794.83,-198.71 1794.83,-190.11"/>
<polygon fill="black" stroke="black" points="1798.33,-190.1 1794.83,-180.1 1791.33,-190.1 1798.33,-190.1"/>
</g>
<!-- Lexeme(id=3, desc=&#39;action&#39;) (2) -->
<g id="node25" class="node">
<title>Lexeme(id=3, desc=&#39;action&#39;) (2)</title>
<ellipse fill="none" stroke="black" cx="2058.83" cy="-162" rx="127.28" ry="18"/>
<text text-anchor="middle" x="2058.83" y="-158.3" font-family="Times New Roman,serif" font-size="14.00">Lexeme(id=3, desc=&#39;action&#39;) (2)</text>
</g>
<!-- Lexeme(id=1, desc=&#39;exp&#39;) (5)&#45;&gt;Lexeme(id=3, desc=&#39;action&#39;) (2) -->
<g id="edge24" class="edge">
<title>Lexeme(id=1, desc=&#39;exp&#39;) (5)&#45;&gt;Lexeme(id=3, desc=&#39;action&#39;) (2)</title>
<path fill="none" stroke="black" d="M1851.14,-218.07C1892.3,-207.15 1948.3,-192.31 1991.78,-180.78"/>
<polygon fill="black" stroke="black" points="1992.92,-184.1 2001.69,-178.15 1991.13,-177.33 1992.92,-184.1"/>
</g>
<!-- Lexeme(id=1, desc=&#39;exp&#39;) (7) -->
<g id="node26" class="node">
<title>Lexeme(id=1, desc=&#39;exp&#39;) (7)</title>
<ellipse fill="none" stroke="black" cx="2322.83" cy="-162" rx="118.08" ry="18"/>
<text text-anchor="middle" x="2322.83" y="-158.3" font-family="Times New Roman,serif" font-size="14.00">Lexeme(id=1, desc=&#39;exp&#39;) (7)</text>
</g>
<!-- Lexeme(id=1, desc=&#39;exp&#39;) (5)&#45;&gt;Lexeme(id=1, desc=&#39;exp&#39;) (7) -->
<g id="edge25" class="edge">
<title>Lexeme(id=1, desc=&#39;exp&#39;) (5)&#45;&gt;Lexeme(id=1, desc=&#39;exp&#39;) (7)</title>
<path fill="none" stroke="black" d="M1880.56,-221.5C1894.36,-219.66 1908.49,-217.77 1921.83,-216 2043.15,-199.88 2073.5,-196.06 2194.83,-180 2205.1,-178.64 2215.84,-177.22 2226.54,-175.8"/>
<polygon fill="black" stroke="black" points="2227.31,-179.23 2236.76,-174.44 2226.39,-172.29 2227.31,-179.23"/>
</g>
<!-- Token(content=&#39;)&#39;, position=(1:15), tags=[]) (8) -->
<g id="node33" class="node">
<title>Token(content=&#39;)&#39;, position=(1:15), tags=[]) (8)</title>
<ellipse fill="none" stroke="black" cx="2641.83" cy="-162" rx="182.77" ry="18"/>
<text text-anchor="middle" x="2641.83" y="-158.3" font-family="Times New Roman,serif" font-size="14.00">Token(content=&#39;)&#39;, position=(1:15), tags=[]) (8)</text>
</g>
<!-- ExactLexeme(content=&#39;)&#39;, id=&#39;8&#39;)&#45;&gt;Token(content=&#39;)&#39;, position=(1:15), tags=[]) (8) -->
<g id="edge32" class="edge">
<title>ExactLexeme(content=&#39;)&#39;, id=&#39;8&#39;)&#45;&gt;Token(content=&#39;)&#39;, position=(1:15), tags=[]) (8)</title>
<path fill="none" stroke="black" d="M2154.66,-221.49C2169.76,-219.65 2185.23,-217.77 2199.83,-216 2308.06,-202.89 2431.22,-188.14 2519.99,-177.53"/>
<polygon fill="black" stroke="black" points="2520.59,-180.98 2530.1,-176.32 2519.76,-174.03 2520.59,-180.98"/>
</g>
<!-- RegexLexeme(regex=&#39;\d+&#39;, id=&#39;2&#39;) (2) -->
<g id="node27" class="node">
<title>RegexLexeme(regex=&#39;\d+&#39;, id=&#39;2&#39;) (2)</title>
<ellipse fill="none" stroke="black" cx="1689.83" cy="-90" rx="144.87" ry="18"/>
<text text-anchor="middle" x="1689.83" y="-86.3" font-family="Times New Roman,serif" font-size="14.00">RegexLexeme(regex=&#39;d+&#39;, id=&#39;2&#39;) (2)</text>
</g>
<!-- Lexeme(id=1, desc=&#39;exp&#39;) (6)&#45;&gt;RegexLexeme(regex=&#39;\d+&#39;, id=&#39;2&#39;) (2) -->
<g id="edge26" class="edge">
<title>Lexeme(id=1, desc=&#39;exp&#39;) (6)&#45;&gt;RegexLexeme(regex=&#39;\d+&#39;, id=&#39;2&#39;) (2)</title>
<path fill="none" stroke="black" d="M1769.68,-144.23C1755.88,-135.04 1738.59,-123.51 1723.63,-113.54"/>
<polygon fill="black" stroke="black" points="1725.4,-110.51 1715.14,-107.87 1721.52,-116.33 1725.4,-110.51"/>
</g>
<!-- ExactLexeme(content=&#39;+&#39;, id=&#39;4&#39;) -->
<g id="node29" class="node">
<title>ExactLexeme(content=&#39;+&#39;, id=&#39;4&#39;)</title>
<ellipse fill="none" stroke="black" cx="2058.83" cy="-90" rx="131.88" ry="18"/>
<text text-anchor="middle" x="2058.83" y="-86.3" font-family="Times New Roman,serif" font-size="14.00">ExactLexeme(content=&#39;+&#39;, id=&#39;4&#39;)</text>
</g>
<!-- Lexeme(id=3, desc=&#39;action&#39;) (2)&#45;&gt;ExactLexeme(content=&#39;+&#39;, id=&#39;4&#39;) -->
<g id="edge28" class="edge">
<title>Lexeme(id=3, desc=&#39;action&#39;) (2)&#45;&gt;ExactLexeme(content=&#39;+&#39;, id=&#39;4&#39;)</title>
<path fill="none" stroke="black" d="M2058.83,-143.7C2058.83,-135.98 2058.83,-126.71 2058.83,-118.11"/>
<polygon fill="black" stroke="black" points="2062.33,-118.1 2058.83,-108.1 2055.33,-118.1 2062.33,-118.1"/>
</g>
<!-- RegexLexeme(regex=&#39;\d+&#39;, id=&#39;2&#39;) (3) -->
<g id="node31" class="node">
<title>RegexLexeme(regex=&#39;\d+&#39;, id=&#39;2&#39;) (3)</title>
<ellipse fill="none" stroke="black" cx="2425.83" cy="-90" rx="144.87" ry="18"/>
<text text-anchor="middle" x="2425.83" y="-86.3" font-family="Times New Roman,serif" font-size="14.00">RegexLexeme(regex=&#39;d+&#39;, id=&#39;2&#39;) (3)</text>
</g>
<!-- Lexeme(id=1, desc=&#39;exp&#39;) (7)&#45;&gt;RegexLexeme(regex=&#39;\d+&#39;, id=&#39;2&#39;) (3) -->
<g id="edge30" class="edge">
<title>Lexeme(id=1, desc=&#39;exp&#39;) (7)&#45;&gt;RegexLexeme(regex=&#39;\d+&#39;, id=&#39;2&#39;) (3)</title>
<path fill="none" stroke="black" d="M2347.5,-144.23C2361.03,-135.04 2377.99,-123.51 2392.67,-113.54"/>
<polygon fill="black" stroke="black" points="2394.7,-116.39 2401,-107.87 2390.76,-110.6 2394.7,-116.39"/>
</g>
<!-- Token(content=&#39;11&#39;, position=(1:11), tags=[number, regex]) (5) -->
<g id="node28" class="node">
<title>Token(content=&#39;11&#39;, position=(1:11), tags=[number, regex]) (5)</title>
<ellipse fill="none" stroke="black" cx="1614.83" cy="-18" rx="240.46" ry="18"/>
<text text-anchor="middle" x="1614.83" y="-14.3" font-family="Times New Roman,serif" font-size="14.00">Token(content=&#39;11&#39;, position=(1:11), tags=[number, regex]) (5)</text>
</g>
<!-- RegexLexeme(regex=&#39;\d+&#39;, id=&#39;2&#39;) (2)&#45;&gt;Token(content=&#39;11&#39;, position=(1:11), tags=[number, regex]) (5) -->
<g id="edge27" class="edge">
<title>RegexLexeme(regex=&#39;\d+&#39;, id=&#39;2&#39;) (2)&#45;&gt;Token(content=&#39;11&#39;, position=(1:11), tags=[number, regex]) (5)</title>
<path fill="none" stroke="black" d="M1671.67,-72.05C1662.35,-63.35 1650.82,-52.59 1640.59,-43.04"/>
<polygon fill="black" stroke="black" points="1642.78,-40.3 1633.08,-36.03 1638,-45.41 1642.78,-40.3"/>
</g>
<!-- Token(content=&#39;+&#39;, position=(1:13), tags=[]) (6) -->
<g id="node30" class="node">
<title>Token(content=&#39;+&#39;, position=(1:13), tags=[]) (6)</title>
<ellipse fill="none" stroke="black" cx="2058.83" cy="-18" rx="185.47" ry="18"/>
<text text-anchor="middle" x="2058.83" y="-14.3" font-family="Times New Roman,serif" font-size="14.00">Token(content=&#39;+&#39;, position=(1:13), tags=[]) (6)</text>
</g>
<!-- ExactLexeme(content=&#39;+&#39;, id=&#39;4&#39;)&#45;&gt;Token(content=&#39;+&#39;, position=(1:13), tags=[]) (6) -->
<g id="edge29" class="edge">
<title>ExactLexeme(content=&#39;+&#39;, id=&#39;4&#39;)&#45;&gt;Token(content=&#39;+&#39;, position=(1:13), tags=[]) (6)</title>
<path fill="none" stroke="black" d="M2058.83,-71.7C2058.83,-63.98 2058.83,-54.71 2058.83,-46.11"/>
<polygon fill="black" stroke="black" points="2062.33,-46.1 2058.83,-36.1 2055.33,-46.1 2062.33,-46.1"/>
</g>
<!-- Token(content=&#39;3&#39;, position=(1:14), tags=[number, regex]) (7) -->
<g id="node32" class="node">
<title>Token(content=&#39;3&#39;, position=(1:14), tags=[number, regex]) (7)</title>
<ellipse fill="none" stroke="black" cx="2497.83" cy="-18" rx="235.86" ry="18"/>
<text text-anchor="middle" x="2497.83" y="-14.3" font-family="Times New Roman,serif" font-size="14.00">Token(content=&#39;3&#39;, position=(1:14), tags=[number, regex]) (7)</text>
</g>
<!-- RegexLexeme(regex=&#39;\d+&#39;, id=&#39;2&#39;) (3)&#45;&gt;Token(content=&#39;3&#39;, position=(1:14), tags=[number, regex]) (7) -->
<g id="edge31" class="edge">
<title>RegexLexeme(regex=&#39;\d+&#39;, id=&#39;2&#39;) (3)&#45;&gt;Token(content=&#39;3&#39;, position=(1:14), tags=[number, regex]) (7)</title>
<path fill="none" stroke="black" d="M2443.26,-72.05C2452.21,-63.35 2463.28,-52.59 2473.1,-43.04"/>
<polygon fill="black" stroke="black" points="2475.58,-45.51 2480.31,-36.03 2470.7,-40.49 2475.58,-45.51"/>
</g>
<!-- ExactLexeme(content=&#39;return&#39;, id=&#39;11&#39;) -->
<g id="node36" class="node">
<title>ExactLexeme(content=&#39;return&#39;, id=&#39;11&#39;)</title>
<ellipse fill="none" stroke="black" cx="2487.83" cy="-306" rx="152.17" ry="18"/>
<text text-anchor="middle" x="2487.83" y="-302.3" font-family="Times New Roman,serif" font-size="14.00">ExactLexeme(content=&#39;return&#39;, id=&#39;11&#39;)</text>
</g>
<!-- Lexeme(id=15, desc=&#39;line&#39;) (2)&#45;&gt;ExactLexeme(content=&#39;return&#39;, id=&#39;11&#39;) -->
<g id="edge35" class="edge">
<title>Lexeme(id=15, desc=&#39;line&#39;) (2)&#45;&gt;ExactLexeme(content=&#39;return&#39;, id=&#39;11&#39;)</title>
<path fill="none" stroke="black" d="M2636.54,-369.72C2607.58,-357.51 2567.62,-340.65 2536.42,-327.49"/>
<polygon fill="black" stroke="black" points="2537.61,-324.2 2527.04,-323.54 2534.89,-330.65 2537.61,-324.2"/>
</g>
<!-- ExactLexeme(content=&#39; &#39;, id=&#39;13&#39;) -->
<g id="node37" class="node">
<title>ExactLexeme(content=&#39; &#39;, id=&#39;13&#39;)</title>
<ellipse fill="none" stroke="black" cx="2861.83" cy="-306" rx="133.78" ry="18"/>
<text text-anchor="middle" x="2861.83" y="-302.3" font-family="Times New Roman,serif" font-size="14.00">ExactLexeme(content=&#39; &#39;, id=&#39;13&#39;)</text>
</g>
<!-- Lexeme(id=15, desc=&#39;line&#39;) (2)&#45;&gt;ExactLexeme(content=&#39; &#39;, id=&#39;13&#39;) -->
<g id="edge36" class="edge">
<title>Lexeme(id=15, desc=&#39;line&#39;) (2)&#45;&gt;ExactLexeme(content=&#39; &#39;, id=&#39;13&#39;)</title>
<path fill="none" stroke="black" d="M2713.12,-369.72C2742.27,-357.43 2782.57,-340.43 2813.86,-327.23"/>
<polygon fill="black" stroke="black" points="2815.41,-330.38 2823.27,-323.26 2812.69,-323.93 2815.41,-330.38"/>
</g>
<!-- Lexeme(id=1, desc=&#39;exp&#39;) (8) -->
<g id="node38" class="node">
<title>Lexeme(id=1, desc=&#39;exp&#39;) (8)</title>
<ellipse fill="none" stroke="black" cx="3247.83" cy="-306" rx="118.08" ry="18"/>
<text text-anchor="middle" x="3247.83" y="-302.3" font-family="Times New Roman,serif" font-size="14.00">Lexeme(id=1, desc=&#39;exp&#39;) (8)</text>
</g>
<!-- Lexeme(id=15, desc=&#39;line&#39;) (2)&#45;&gt;Lexeme(id=1, desc=&#39;exp&#39;) (8) -->
<g id="edge37" class="edge">
<title>Lexeme(id=15, desc=&#39;line&#39;) (2)&#45;&gt;Lexeme(id=1, desc=&#39;exp&#39;) (8)</title>
<path fill="none" stroke="black" d="M2760.92,-374.02C2866.35,-359.51 3044.33,-335.01 3153.42,-320"/>
<polygon fill="black" stroke="black" points="3154,-323.45 3163.43,-318.62 3153.04,-316.51 3154,-323.45"/>
</g>
<!-- Token(content=&#39;return&#39;, position=(2:1), tags=[word, regex]) (10) -->
<g id="node39" class="node">
<title>Token(content=&#39;return&#39;, position=(2:1), tags=[word, regex]) (10)</title>
<ellipse fill="none" stroke="black" cx="2452.83" cy="-234" rx="244.26" ry="18"/>
<text text-anchor="middle" x="2452.83" y="-230.3" font-family="Times New Roman,serif" font-size="14.00">Token(content=&#39;return&#39;, position=(2:1), tags=[word, regex]) (10)</text>
</g>
<!-- ExactLexeme(content=&#39;return&#39;, id=&#39;11&#39;)&#45;&gt;Token(content=&#39;return&#39;, position=(2:1), tags=[word, regex]) (10) -->
<g id="edge38" class="edge">
<title>ExactLexeme(content=&#39;return&#39;, id=&#39;11&#39;)&#45;&gt;Token(content=&#39;return&#39;, position=(2:1), tags=[word, regex]) (10)</title>
<path fill="none" stroke="black" d="M2479.18,-287.7C2475.19,-279.73 2470.38,-270.1 2465.96,-261.26"/>
<polygon fill="black" stroke="black" points="2468.98,-259.48 2461.38,-252.1 2462.72,-262.61 2468.98,-259.48"/>
</g>
<!-- Token(content=&#39; &#39;, position=(2:7), tags=[]) (11) -->
<g id="node40" class="node">
<title>Token(content=&#39; &#39;, position=(2:7), tags=[]) (11)</title>
<ellipse fill="none" stroke="black" cx="2897.83" cy="-234" rx="182.77" ry="18"/>
<text text-anchor="middle" x="2897.83" y="-230.3" font-family="Times New Roman,serif" font-size="14.00">Token(content=&#39; &#39;, position=(2:7), tags=[]) (11)</text>
</g>
<!-- ExactLexeme(content=&#39; &#39;, id=&#39;13&#39;)&#45;&gt;Token(content=&#39; &#39;, position=(2:7), tags=[]) (11) -->
<g id="edge39" class="edge">
<title>ExactLexeme(content=&#39; &#39;, id=&#39;13&#39;)&#45;&gt;Token(content=&#39; &#39;, position=(2:7), tags=[]) (11)</title>
<path fill="none" stroke="black" d="M2870.73,-287.7C2874.83,-279.73 2879.78,-270.1 2884.32,-261.26"/>
<polygon fill="black" stroke="black" points="2887.57,-262.6 2889.03,-252.1 2881.35,-259.4 2887.57,-262.6"/>
</g>
<!-- RegexLexeme(regex=&#39;_*[A&#45;Za&#45;z][A&#45;Za&#45;z_0&#45;9]*&#39;, id=&#39;10&#39;) (2) -->
<g id="node41" class="node">
<title>RegexLexeme(regex=&#39;_*[A&#45;Za&#45;z][A&#45;Za&#45;z_0&#45;9]*&#39;, id=&#39;10&#39;) (2)</title>
<ellipse fill="none" stroke="black" cx="3329.83" cy="-234" rx="231.26" ry="18"/>
<text text-anchor="middle" x="3329.83" y="-230.3" font-family="Times New Roman,serif" font-size="14.00">RegexLexeme(regex=&#39;_*[A&#45;Za&#45;z][A&#45;Za&#45;z_0&#45;9]*&#39;, id=&#39;10&#39;) (2)</text>
</g>
<!-- Lexeme(id=1, desc=&#39;exp&#39;) (8)&#45;&gt;RegexLexeme(regex=&#39;_*[A&#45;Za&#45;z][A&#45;Za&#45;z_0&#45;9]*&#39;, id=&#39;10&#39;) (2) -->
<g id="edge40" class="edge">
<title>Lexeme(id=1, desc=&#39;exp&#39;) (8)&#45;&gt;RegexLexeme(regex=&#39;_*[A&#45;Za&#45;z][A&#45;Za&#45;z_0&#45;9]*&#39;, id=&#39;10&#39;) (2)</title>
<path fill="none" stroke="black" d="M3267.68,-288.05C3277.98,-279.26 3290.73,-268.38 3301.99,-258.76"/>
<polygon fill="black" stroke="black" points="3304.54,-261.19 3309.88,-252.03 3300,-255.86 3304.54,-261.19"/>
</g>
<!-- Token(content=&#39;return&#39;, position=(2:8), tags=[word, regex]) (12) -->
<g id="node42" class="node">
<title>Token(content=&#39;return&#39;, position=(2:8), tags=[word, regex]) (12)</title>
<ellipse fill="none" stroke="black" cx="3329.83" cy="-162" rx="244.26" ry="18"/>
<text text-anchor="middle" x="3329.83" y="-158.3" font-family="Times New Roman,serif" font-size="14.00">Token(content=&#39;return&#39;, position=(2:8), tags=[word, regex]) (12)</text>
</g>
<!-- RegexLexeme(regex=&#39;_*[A&#45;Za&#45;z][A&#45;Za&#45;z_0&#45;9]*&#39;, id=&#39;10&#39;) (2)&#45;&gt;Token(content=&#39;return&#39;, position=(2:8), tags=[word, regex]) (12) -->
<g id="edge41" class="edge">
<title>RegexLexeme(regex=&#39;_*[A&#45;Za&#45;z][A&#45;Za&#45;z_0&#45;9]*&#39;, id=&#39;10&#39;) (2)&#45;&gt;Token(content=&#39;return&#39;, position=(2:8), tags=[word, regex]) (12)</title>
<path fill="none" stroke="black" d="M3329.83,-215.7C3329.83,-207.98 3329.83,-198.71 3329.83,-190.11"/>
<polygon fill="black" stroke="black" points="3333.33,-190.1 3329.83,-180.1 3326.33,-190.1 3333.33,-190.1"/>
</g>
</g>
</svg>
